<svg width="325.587" height="209.4" viewBox="0 0 244.19 157.05" class="displayed_equation" xmlns="http://www.w3.org/2000/svg">
  <defs>
    <clipPath id="svg945107658568tikz_00003a">
      <path d="M 15.734375 15.730469 L 228.457031 15.730469 L 228.457031 141.3125 L 15.734375 141.3125 Z M 15.734375 15.730469" />
    </clipPath>
    <clipPath id="svg945107658568tikz_00003b">
      <path d="M 15.734375 96 L 39 96 L 39 123 L 15.734375 123 Z M 15.734375 96" />
    </clipPath>
    <clipPath id="svg945107658568tikz_00003c">
      <path d="M 81 15.730469 L 108 15.730469 L 108 41 L 81 41 Z M 81 15.730469" />
    </clipPath>
    <clipPath id="svg945107658568tikz_00003d">
      <path d="M 209 80 L 228.457031 80 L 228.457031 107 L 209 107 Z M 209 80" />
    </clipPath>
    <clipPath id="svg945107658568tikz_00003e">
      <path d="M 164 120 L 191 120 L 191 141.3125 L 164 141.3125 Z M 164 120" />
    </clipPath>
  </defs>
  <g clip-path="url(#svg945107658568tikz_00003a)">
    <path d="M 2094.609375 161.90625 L 347.304688 161.90625 C 244.296875 161.90625 160.78125 245.421875 160.78125 348.429688 L 160.78125 1222.101563 C 160.78125 1325.109375 244.296875 1408.625 347.304688 1408.625 L 2094.609375 1408.625 C 2197.617188 1408.625 2281.171875 1325.109375 2281.171875 1222.101563 L 2281.171875 348.429688 C 2281.171875 245.421875 2197.617188 161.90625 2094.609375 161.90625 Z M 2094.609375 161.90625" transform="matrix(.1 0 0 -.1 0 157.05)" fill="none" stroke-width="6.814" stroke="#000" stroke-miterlimit="10" />
  </g>
  <path d="M408.867188 1192.765625C408.867188 1174.757813 394.257813 1160.148438 376.25 1160.148438 358.242188 1160.148438 343.671875 1174.757813 343.671875 1192.765625 343.671875 1210.773438 358.242188 1225.382813 376.25 1225.382813 394.257813 1225.382813 408.867188 1210.773438 408.867188 1192.765625zM343.789063 852.140625C343.789063 834.171875 329.179688 819.5625 311.210938 819.5625 293.164063 819.5625 278.59375 834.171875 278.59375 852.140625 278.59375 870.148438 293.164063 884.757813 311.210938 884.757813 329.179688 884.757813 343.789063 870.148438 343.789063 852.140625zM343.789063 852.140625" transform="matrix(.1 0 0 -.1 0 157.05)" fill="#fbc04f" stroke-width="6.814" stroke="#000" stroke-miterlimit="10" />
  <path d="M 28.699219 109.621094 C 28.699219 111.421875 27.238281 112.882813 25.441406 112.882813 C 23.636719 112.882813 22.179688 111.421875 22.179688 109.621094 C 22.179688 107.824219 23.636719 106.363281 25.441406 106.363281 C 27.238281 106.363281 28.699219 107.824219 28.699219 109.621094 Z M 28.699219 109.621094" fill="#fbc04f" />
  <g clip-path="url(#svg945107658568tikz_00003b)">
    <path d="M 286.992188 474.289063 C 286.992188 456.28125 272.382813 441.671875 254.414063 441.671875 C 236.367188 441.671875 221.796875 456.28125 221.796875 474.289063 C 221.796875 492.257813 236.367188 506.867188 254.414063 506.867188 C 272.382813 506.867188 286.992188 492.257813 286.992188 474.289063 Z M 286.992188 474.289063" transform="matrix(.1 0 0 -.1 0 157.05)" fill="none" stroke-width="6.814" stroke="#000" stroke-miterlimit="10" />
  </g>
  <path d="M383.125 642.335938C383.125 624.328125 368.515625 609.71875 350.507813 609.71875 332.5 609.71875 317.890625 624.328125 317.890625 642.335938 317.890625 660.34375 332.5 674.953125 350.507813 674.953125 368.515625 674.953125 383.125 660.34375 383.125 642.335938zM555.9375 803.703125C555.9375 785.65625 541.328125 771.085938 523.359375 771.085938 505.3125 771.085938 490.742188 785.65625 490.742188 803.703125 490.742188 821.671875 505.3125 836.28125 523.359375 836.28125 541.328125 836.28125 555.9375 821.671875 555.9375 803.703125zM885.898438 898.507813C885.898438 880.460938 871.328125 865.890625 853.320313 865.890625 835.3125 865.890625 820.742188 880.460938 820.742188 898.507813 820.742188 916.476563 835.3125 931.085938 853.320313 931.085938 871.328125 931.085938 885.898438 916.476563 885.898438 898.507813zM845.898438 688.976563C845.898438 670.929688 831.328125 656.359375 813.320313 656.359375 795.3125 656.359375 780.703125 670.929688 780.703125 688.976563 780.703125 706.945313 795.3125 721.515625 813.320313 721.515625 831.328125 721.515625 845.898438 706.945313 845.898438 688.976563zM875.78125 474.289063C875.78125 456.28125 861.171875 441.671875 843.203125 441.671875 825.195313 441.671875 810.585938 456.28125 810.585938 474.289063 810.585938 492.257813 825.195313 506.867188 843.203125 506.867188 861.171875 506.867188 875.78125 492.257813 875.78125 474.289063zM641.289063 526.4375C641.289063 508.429688 626.71875 493.859375 608.710938 493.859375 590.742188 493.859375 576.09375 508.429688 576.09375 526.4375 576.09375 544.445313 590.742188 559.015625 608.710938 559.015625 626.71875 559.015625 641.289063 544.445313 641.289063 526.4375zM452.929688 312.296875C452.929688 294.289063 438.359375 279.679688 420.3125 279.679688 402.304688 279.679688 387.734375 294.289063 387.734375 312.296875 387.734375 330.304688 402.304688 344.875 420.3125 344.875 438.359375 344.875 452.929688 330.304688 452.929688 312.296875zM876.914063 1073.703125C876.914063 1055.65625 862.34375 1041.085938 844.335938 1041.085938 826.328125 1041.085938 811.71875 1055.65625 811.71875 1073.703125 811.71875 1091.671875 826.328125 1106.28125 844.335938 1106.28125 862.34375 1106.28125 876.914063 1091.671875 876.914063 1073.703125zM876.914063 1073.703125" transform="matrix(.1 0 0 -.1 0 157.05)" fill="#fbc04f" stroke-width="6.814" stroke="#000" stroke-miterlimit="10" />
  <path d="M 98.007813 27.613281 C 98.007813 29.414063 96.550781 30.871094 94.753906 30.871094 C 92.949219 30.871094 91.492188 29.414063 91.492188 27.613281 C 91.492188 25.8125 92.949219 24.351563 94.753906 24.351563 C 96.550781 24.351563 98.007813 25.8125 98.007813 27.613281 Z M 98.007813 27.613281" fill="#fbc04f" />
  <g clip-path="url(#svg945107658568tikz_00003c)">
    <path d="M 980.078125 1294.367188 C 980.078125 1276.359375 965.507813 1261.789063 947.539063 1261.789063 C 929.492188 1261.789063 914.921875 1276.359375 914.921875 1294.367188 C 914.921875 1312.375 929.492188 1326.984375 947.539063 1326.984375 C 965.507813 1326.984375 980.078125 1312.375 980.078125 1294.367188 Z M 980.078125 1294.367188" transform="matrix(.1 0 0 -.1 0 157.05)" fill="none" stroke-width="6.814" stroke="#000" stroke-miterlimit="10" />
  </g>
  <path d="M1078.476563 1130.851563C1078.476563 1112.84375 1063.867188 1098.273438 1045.859375 1098.273438 1027.851563 1098.273438 1013.28125 1112.84375 1013.28125 1130.851563 1013.28125 1148.859375 1027.851563 1163.46875 1045.859375 1163.46875 1063.867188 1163.46875 1078.476563 1148.859375 1078.476563 1130.851563zM1268.945313 1265.695313C1268.945313 1247.6875 1254.375 1233.078125 1236.367188 1233.078125 1218.359375 1233.078125 1203.75 1247.6875 1203.75 1265.695313 1203.75 1283.703125 1218.359375 1298.273438 1236.367188 1298.273438 1254.375 1298.273438 1268.945313 1283.703125 1268.945313 1265.695313zM1664.53125 1258.429688C1664.53125 1240.421875 1649.960938 1225.8125 1631.953125 1225.8125 1613.945313 1225.8125 1599.375 1240.421875 1599.375 1258.429688 1599.375 1276.476563 1613.945313 1291.046875 1631.953125 1291.046875 1649.960938 1291.046875 1664.53125 1276.476563 1664.53125 1258.429688zM2068.4375 1206.28125C2068.4375 1188.273438 2053.828125 1173.664063 2035.820313 1173.664063 2017.8125 1173.664063 2003.242188 1188.273438 2003.242188 1206.28125 2003.242188 1224.289063 2017.8125 1238.898438 2035.820313 1238.898438 2053.828125 1238.898438 2068.4375 1224.289063 2068.4375 1206.28125zM1591.445313 866.671875C1591.445313 848.664063 1576.875 834.054688 1558.867188 834.054688 1540.859375 834.054688 1526.289063 848.664063 1526.289063 866.671875 1526.289063 884.679688 1540.859375 899.289063 1558.867188 899.289063 1576.875 899.289063 1591.445313 884.679688 1591.445313 866.671875zM1649.648438 1050.265625C1649.648438 1032.296875 1635.039063 1017.6875 1617.03125 1017.6875 1599.023438 1017.6875 1584.453125 1032.296875 1584.453125 1050.265625 1584.453125 1068.273438 1599.023438 1082.882813 1617.03125 1082.882813 1635.039063 1082.882813 1649.648438 1068.273438 1649.648438 1050.265625zM1469.960938 928.585938C1469.960938 910.617188 1455.351563 896.046875 1437.382813 896.046875 1419.375 896.046875 1404.765625 910.617188 1404.765625 928.585938 1404.765625 946.632813 1419.375 961.203125 1437.382813 961.203125 1455.351563 961.203125 1469.960938 946.632813 1469.960938 928.585938zM2115.390625 703.976563C2115.390625 685.96875 2100.820313 671.359375 2082.8125 671.359375 2064.804688 671.359375 2050.234375 685.96875 2050.234375 703.976563 2050.234375 721.984375 2064.804688 736.59375 2082.8125 736.59375 2100.820313 736.59375 2115.390625 721.984375 2115.390625 703.976563zM1980.859375 694.25C1980.859375 676.203125 1966.289063 661.632813 1948.242188 661.632813 1930.273438 661.632813 1915.625 676.203125 1915.625 694.25 1915.625 712.21875 1930.273438 726.828125 1948.242188 726.828125 1966.289063 726.828125 1980.859375 712.21875 1980.859375 694.25zM1802.539063 613.46875C1802.539063 595.5 1787.929688 580.851563 1769.921875 580.851563 1751.914063 580.851563 1737.304688 595.5 1737.304688 613.46875 1737.304688 631.476563 1751.914063 646.085938 1769.921875 646.085938 1787.929688 646.085938 1802.539063 631.476563 1802.539063 613.46875zM1802.539063 613.46875" transform="matrix(.1 0 0 -.1 0 157.05)" fill="#fbc04f" stroke-width="6.814" stroke="#000" stroke-miterlimit="10" />
  <path d="M 226.039063 93.695313 C 226.039063 95.492188 224.578125 96.953125 222.78125 96.953125 C 220.976563 96.953125 219.519531 95.492188 219.519531 93.695313 C 219.519531 91.890625 220.976563 90.433594 222.78125 90.433594 C 224.578125 90.433594 226.039063 91.890625 226.039063 93.695313 Z M 226.039063 93.695313" fill="#fbc04f" />
  <g clip-path="url(#svg945107658568tikz_00003d)">
    <path d="M 2260.390625 633.546875 C 2260.390625 615.578125 2245.78125 600.96875 2227.8125 600.96875 C 2209.765625 600.96875 2195.195313 615.578125 2195.195313 633.546875 C 2195.195313 651.59375 2209.765625 666.164063 2227.8125 666.164063 C 2245.78125 666.164063 2260.390625 651.59375 2260.390625 633.546875 Z M 2260.390625 633.546875" transform="matrix(.1 0 0 -.1 0 157.05)" fill="none" stroke-width="6.814" stroke="#000" stroke-miterlimit="10" />
  </g>
  <path d="M2095.039063 446.554688C2095.039063 428.546875 2080.429688 413.9375 2062.460938 413.9375 2044.414063 413.9375 2029.84375 428.546875 2029.84375 446.554688 2029.84375 464.523438 2044.414063 479.132813 2062.460938 479.132813 2080.429688 479.132813 2095.039063 464.523438 2095.039063 446.554688zM1595.976563 302.6875C1595.976563 284.679688 1581.367188 270.070313 1563.398438 270.070313 1545.351563 270.070313 1530.78125 284.679688 1530.78125 302.6875 1530.78125 320.695313 1545.351563 335.304688 1563.398438 335.304688 1581.367188 335.304688 1595.976563 320.695313 1595.976563 302.6875zM1595.976563 302.6875" transform="matrix(.1 0 0 -.1 0 157.05)" fill="#fbc04f" stroke-width="6.814" stroke="#000" stroke-miterlimit="10" />
  <path d="M 180.769531 133.84375 C 180.769531 135.648438 179.308594 137.105469 177.507813 137.105469 C 175.707031 137.105469 174.25 135.648438 174.25 133.84375 C 174.25 132.046875 175.707031 130.585938 177.507813 130.585938 C 179.308594 130.585938 180.769531 132.046875 180.769531 133.84375 Z M 180.769531 133.84375" fill="#fbc04f" />
  <g clip-path="url(#svg945107658568tikz_00003e)">
    <path d="M 1807.695313 232.0625 C 1807.695313 214.015625 1793.085938 199.445313 1775.078125 199.445313 C 1757.070313 199.445313 1742.5 214.015625 1742.5 232.0625 C 1742.5 250.03125 1757.070313 264.640625 1775.078125 264.640625 C 1793.085938 264.640625 1807.695313 250.03125 1807.695313 232.0625 Z M 1807.695313 232.0625" transform="matrix(.1 0 0 -.1 0 157.05)" fill="none" stroke-width="6.814" stroke="#000" stroke-miterlimit="10" />
  </g>
  <path d="M1372.265625 444.40625C1372.265625 426.398438 1357.65625 411.828125 1339.6875 411.828125 1321.640625 411.828125 1307.070313 426.398438 1307.070313 444.40625 1307.070313 462.453125 1321.640625 477.023438 1339.6875 477.023438 1357.65625 477.023438 1372.265625 462.453125 1372.265625 444.40625zM1077.03125 420.460938C1077.03125 402.453125 1062.460938 387.84375 1044.414063 387.84375 1026.445313 387.84375 1011.835938 402.453125 1011.835938 420.460938 1011.835938 438.46875 1026.445313 453.078125 1044.414063 453.078125 1062.460938 453.078125 1077.03125 438.46875 1077.03125 420.460938zM1234.257813 298.507813C1234.257813 280.460938 1219.648438 265.890625 1201.640625 265.890625 1183.671875 265.890625 1169.023438 280.460938 1169.023438 298.507813 1169.023438 316.476563 1183.671875 331.085938 1201.640625 331.085938 1219.648438 331.085938 1234.257813 316.476563 1234.257813 298.507813zM1118.789063 923.664063C1118.789063 905.65625 1104.140625 891.046875 1086.171875 891.046875 1068.164063 891.046875 1053.554688 905.65625 1053.554688 923.664063 1053.554688 941.632813 1068.164063 956.242188 1086.171875 956.242188 1104.140625 956.242188 1118.789063 941.632813 1118.789063 923.664063zM1243.945313 505.695313C1243.945313 487.6875 1229.335938 473.078125 1211.367188 473.078125 1193.359375 473.078125 1178.75 487.6875 1178.75 505.695313 1178.75 523.703125 1193.359375 538.3125 1211.367188 538.3125 1229.335938 538.3125 1243.945313 523.703125 1243.945313 505.695313zM1524.179688 673.195313C1524.179688 655.1875 1509.609375 640.578125 1491.601563 640.578125 1473.59375 640.578125 1458.984375 655.1875 1458.984375 673.195313 1458.984375 691.203125 1473.59375 705.773438 1491.601563 705.773438 1509.609375 705.773438 1524.179688 691.203125 1524.179688 673.195313zM1524.179688 673.195313" transform="matrix(.1 0 0 -.1 0 157.05)" fill="#fbc04f" stroke-width="6.814" stroke="#000" stroke-miterlimit="10" />
  <path d="M 2113.945313 913.742188 C 2113.945313 895.773438 2099.375 881.164063 2081.328125 881.164063 C 2063.359375 881.164063 2048.75 895.773438 2048.75 913.742188 C 2048.75 931.75 2063.359375 946.359375 2081.328125 946.359375 C 2099.375 946.359375 2113.945313 931.75 2113.945313 913.742188 Z M 2113.945313 913.742188" transform="matrix(.1 0 0 -.1 0 157.05)" fill="#ed61ae" stroke-width="6.814" stroke="#000" stroke-miterlimit="10" />
  <path d="M 328.4375 974.5625 L 773.046875 1046.75" transform="matrix(.1 0 0 -.1 0 157.05)" fill="none" stroke-width="6.814" stroke="#000" stroke-miterlimit="10" />
  <path d="M 82.054688 51.601563 L 75.808594 55.421875 L 76.953125 52.429688 L 74.917969 49.953125 Z M 82.054688 51.601563" />
  <path d="M 934.0625 889.914063 L 1064.335938 896.28125" transform="matrix(.1 0 0 -.1 0 157.05)" fill="none" stroke-width="6.814" stroke="#000" stroke-miterlimit="10" />
  <path d="M 88.601563 68.289063 L 95.511719 70.730469 L 93.769531 68.039063 L 95.238281 65.195313 Z M 88.601563 68.289063" />
  <path d="M 1332.382813 515.96875 L 1076.953125 1111.046875" transform="matrix(.1 0 0 -.1 0 157.05)" fill="none" stroke-width="6.814" stroke="#000" stroke-miterlimit="10" />
  <path d="M 135.136719 109.875 L 135.007813 102.554688 L 133.09375 105.125 L 129.917969 104.734375 Z M 135.136719 109.875" />
  <path d="M 1693.984375 588.46875 L 1351.367188 471.75" transform="matrix(.1 0 0 -.1 0 157.05)" fill="none" stroke-width="6.814" stroke="#000" stroke-miterlimit="10" />
  <path d="M 173.953125 96.652344 L 166.644531 96.214844 L 169.058594 98.320313 L 168.429688 101.460938 Z M 173.953125 96.652344" />
  <path d="M 2000.546875 899.757813 L 1588.984375 849.367188" transform="matrix(.1 0 0 -.1 0 157.05)" fill="none" stroke-width="6.814" stroke="#000" stroke-miterlimit="10" />
  <path d="M 204.828125 66.488281 L 197.765625 64.5625 L 199.699219 67.117188 L 198.4375 70.0625 Z M 204.828125 66.488281" />
  <path d="M 1603.046875 375.1875 L 1739.53125 603.976563" transform="matrix(.1 0 0 -.1 0 157.05)" fill="none" stroke-width="6.814" stroke="#000" stroke-miterlimit="10" />
  <path d="M 157.835938 123.664063 L 163.691406 119.261719 L 160.488281 119.226563 L 158.929688 116.421875 Z M 157.835938 123.664063" />
  <path d="M 820.546875 1054.484375 L 590.859375 836.75" transform="matrix(.1 0 0 -.1 0 157.05)" fill="none" stroke-width="6.814" stroke="#000" stroke-miterlimit="10" />
  <path d="M 55.59375 76.679688 L 58.609375 70.007813 L 59.34375 73.128906 L 62.417969 74.027344 Z M 55.59375 76.679688" />
  <path d="M 555.9375 803.703125 L 809.726563 541.4375" transform="matrix(.1 0 0 -.1 0 157.05)" fill="none" stroke-width="6.814" stroke="#000" stroke-miterlimit="10" />
  <path d="M 84.320313 106.363281 L 77.613281 103.417969 L 80.722656 102.648438 L 81.59375 99.5625 Z M 84.320313 106.363281" />
  <path d="M 886.015625 883.351563 L 1021.445313 497.335938" transform="matrix(.1 0 0 -.1 0 157.05)" fill="none" stroke-width="6.814" stroke="#000" stroke-miterlimit="10" />
  <path d="M 103.734375 111.855469 L 98.878906 106.375 L 102.023438 106.976563 L 104.105469 104.542969 Z M 103.734375 111.855469" />
  <path d="M 1404.765625 928.585938 L 1256.328125 1189.445313" transform="matrix(.1 0 0 -.1 0 157.05)" fill="none" stroke-width="6.814" stroke="#000" stroke-miterlimit="10" />
  <path d="M 123.253906 33.921875 L 129.019531 38.445313 L 125.8125 38.417969 L 124.203125 41.183594 Z M 123.253906 33.921875" />
  <path d="M 1576.289063 337.023438 L 1584.921875 801.28125" transform="matrix(.1 0 0 -.1 0 157.05)" fill="none" stroke-width="6.814" stroke="#000" stroke-miterlimit="10" />
  <path d="M 158.582031 72.113281 L 161.222656 78.941406 L 158.484375 77.28125 L 155.683594 78.835938 Z M 158.582031 72.113281" />
  <path d="M 842.1875 509.914063 L 1040.351563 854.5625" transform="matrix(.1 0 0 -.1 0 157.05)" fill="none" stroke-width="6.814" stroke="#000" stroke-miterlimit="10" />
  <path d="M 106.433594 67.421875 L 105.453125 74.683594 L 103.855469 71.90625 L 100.652344 71.917969 Z M 106.433594 67.421875" />
  <path d="M 1039.492188 452.648438 L 1375.859375 891.828125" transform="matrix(.1 0 0 -.1 0 157.05)" fill="none" stroke-width="6.814" stroke="#000" stroke-miterlimit="10" />
  <path d="M 140.511719 64.050781 L 138.589844 71.113281 L 137.367188 68.15625 L 134.191406 67.746094 Z M 140.511719 64.050781" />
  <path d="M 1114.257813 1143.898438 L 1232.539063 1231.28125" transform="matrix(.1 0 0 -.1 0 157.05)" fill="none" stroke-width="6.814" stroke="#000" stroke-miterlimit="10" />
  <path d="M 107.554688 45.523438 L 114.65625 43.71875 L 111.714844 42.449219 L 111.363281 39.265625 Z M 107.554688 45.523438" />
</svg>